<svg width="800" height="800" viewBox="0 0 48 48" xmlns="http://www.w3.org/2000/svg" stroke="#000" stroke-width=".336"><g id="SVGRepo_iconCarrier"><defs><style>.cls-2{fill:#902727}</style></defs><g id="Book"><rect height="48" rx="2" ry="2" width="34" x="8" style="fill:#ed2a1d"/><path class="cls-2" d="M10 0h2v48h-2a2 2 0 0 1-2-2V2a2 2 0 0 1 2-2Z"/><path d="M40 44H10a2 2 0 0 0 0 4h30a2 2 0 0 0 2-2v-4a2.006 2.006 0 0 1-2 2Z" style="fill:#a09b8c"/><path d="M40 44H10a2 2 0 0 0 0 4h30a2 2 0 0 0 2-2v-4a2.006 2.006 0 0 1-2 2Z" style="fill:#f1f2f2"/><path d="M42 44v2a2.006 2.006 0 0 1-2 2H10a2 2 0 0 1-1.73-3A2 2 0 0 0 10 46h30a2.006 2.006 0 0 0 2-2Z" style="fill:#4c5665"/><rect class="cls-2" height="10" rx="1" ry="1" width="19" x="17" y="6"/></g></g></svg>